name Walk10.mot
datacolumns 19
datarows 30
range 3.05500000 3.20000000
endheader

                time	   L_ground_force_vx	   L_ground_force_vy	   L_ground_force_vz	   L_ground_force_px	   L_ground_force_py	   L_ground_force_pz	   R_ground_force_vx	   R_ground_force_vy	   R_ground_force_vz	   R_ground_force_px	   R_ground_force_py	   R_ground_force_pz	   L_ground_torque_x	   L_ground_torque_y	   L_ground_torque_z	   R_ground_torque_x	   R_ground_torque_y	   R_ground_torque_z	
          3.05500000	          0.02950485	          0.07455176	         -0.00215694	         -0.00026134	          0.00000000	         -0.00009170	        -25.14627925	        708.01210804	        -44.24798915	          0.20334765	          0.00000000	          0.06989851	          0.00000000	          0.00038703	          0.00000000	          0.00000000	          8.26592037	          0.00000000	
          3.06000000	          0.02037520	          0.04645295	         -0.00190163	         -0.00020976	          0.00000000	         -0.00007340	        -23.74625319	        703.99041991	        -44.37061645	          0.20463844	          0.00000000	          0.07034881	          0.00000000	          0.00027878	          0.00000000	          0.00000000	          8.06891215	          0.00000000	
          3.06500000	          0.01290910	          0.02475986	         -0.00158751	         -0.00016010	          0.00000000	         -0.00005585	        -22.34461566	        699.86836797	        -44.51265077	          0.20592172	          0.00000000	          0.07080176	          0.00000000	          0.00018732	          0.00000000	          0.00000000	          7.87343280	          0.00000000	
          3.07000000	          0.00710028	          0.00889030	         -0.00126052	         -0.00011558	          0.00000000	         -0.00004019	        -20.94329941	        695.68340490	        -44.64961035	          0.20719250	          0.00000000	          0.07125309	          0.00000000	          0.00011385	          0.00000000	          0.00000000	          7.67716613	          0.00000000	
          3.07500000	          0.00281365	         -0.00198966	         -0.00095114	         -0.00007790	          0.00000000	         -0.00002696	        -19.54379724	        691.47604830	        -44.75864344	          0.20844417	          0.00000000	          0.07169879	          0.00000000	          0.00005773	          0.00000000	          0.00000000	          7.47818820	          0.00000000	
          3.08000000	         -0.00015781	         -0.00880941	         -0.00067751	         -0.00004757	          0.00000000	         -0.00001635	        -18.14676935	        687.28817278	        -44.82048147	          0.20966955	          0.00000000	          0.07213547	          0.00000000	          0.00001718	          0.00000000	          0.00000000	          7.27481441	          0.00000000	
          3.08500000	         -0.00205086	         -0.01248606	         -0.00044846	         -0.00002436	          0.00000000	         -0.00000825	        -16.75264124	        683.16342416	        -44.82198109	          0.21086253	          0.00000000	          0.07256107	          0.00000000	         -0.00001019	          0.00000000	          0.00000000	          7.06591200	          0.00000000	
          3.09000000	         -0.00310265	         -0.01385633	         -0.00026610	         -0.00000755	          0.00000000	         -0.00000240	        -15.36250069	        679.14271753	        -44.75746941	          0.21201860	          0.00000000	          0.07297344	          0.00000000	         -0.00002693	          0.00000000	          0.00000000	          6.85100179	          0.00000000	
          3.09500000	         -0.00353175	         -0.01363919	         -0.00012811	          0.00000383	          0.00000000	          0.00000154	        -13.97777562	        675.26266306	        -44.62825019	          0.21313573	          0.00000000	          0.07337084	          0.00000000	         -0.00003554	          0.00000000	          0.00000000	          6.63031083	          0.00000000	
          3.10000000	         -0.00352761	         -0.01242125	         -0.00002949	          0.00001082	          0.00000000	          0.00000394	        -12.60023608	        671.55691318	        -44.44112242	          0.21421535	          0.00000000	          0.07375362	          0.00000000	         -0.00003825	          0.00000000	          0.00000000	          6.40471486	          0.00000000	
          3.10500000	         -0.00324596	         -0.01065784	          0.00003608	          0.00001445	          0.00000000	          0.00000517	        -11.23174330	        668.05510494	        -44.20723682	          0.21526185	          0.00000000	          0.07412347	          0.00000000	         -0.00003696	          0.00000000	          0.00000000	          6.17572718	          0.00000000	
          3.11000000	         -0.00280863	         -0.00868409	          0.00007528	          0.00001564	          0.00000000	          0.00000555	         -9.87440126	        664.78305786	        -43.94044371	          0.21628036	          0.00000000	          0.07448309	          0.00000000	         -0.00003321	          0.00000000	          0.00000000	          5.94514170	          0.00000000	
          3.11500000	         -0.00230605	         -0.00673155	          0.00009446	          0.00001516	          0.00000000	          0.00000536	         -8.52975972	        661.76594888	        -43.65539288	          0.21727751	          0.00000000	          0.07483649	          0.00000000	         -0.00002818	          0.00000000	          0.00000000	          5.71435368	          0.00000000	
          3.12000000	         -0.00180138	         -0.00494705	          0.00009930	          0.00001365	          0.00000000	          0.00000481	         -7.19887814	        659.02930424	        -43.36587345	          0.21826132	          0.00000000	          0.07518866	          0.00000000	         -0.00002272	          0.00000000	          0.00000000	          5.48392380	          0.00000000	
          3.12500000	         -0.00133527	         -0.00341143	          0.00009454	          0.00001161	          0.00000000	          0.00000407	         -5.88208923	        656.59483525	        -43.08433901	          0.21923915	          0.00000000	          0.07554325	          0.00000000	         -0.00001743	          0.00000000	          0.00000000	          5.25431053	          0.00000000	
          3.13000000	         -0.00093076	         -0.00215686	          0.00008401	          0.00000938	          0.00000000	          0.00000328	         -4.57916065	        654.47919202	        -42.82193344	          0.22021727	          0.00000000	          0.07590178	          0.00000000	         -0.00001266	          0.00000000	          0.00000000	          5.02628500	          0.00000000	
          3.13500000	         -0.00059775	         -0.00118175	          0.00007062	          0.00000721	          0.00000000	          0.00000252	         -3.29010197	        652.69730247	        -42.58887258	          0.22120056	          0.00000000	          0.07626401	          0.00000000	         -0.00000859	          0.00000000	          0.00000000	          4.80088719	          0.00000000	
          3.14000000	         -0.00033691	         -0.00046297	          0.00005644	          0.00000525	          0.00000000	          0.00000182	         -2.01525041	        651.26311452	        -42.39458999	          0.22219107	          0.00000000	          0.07662821	          0.00000000	         -0.00000531	          0.00000000	          0.00000000	          4.57943384	          0.00000000	
          3.14500000	         -0.00014300	          0.00003459	          0.00004289	          0.00000357	          0.00000000	          0.00000124	         -0.75493881	        650.18922529	        -42.24772326	          0.22318932	          0.00000000	          0.07699237	          0.00000000	         -0.00000278	          0.00000000	          0.00000000	          4.36327808	          0.00000000	
          3.15000000	         -0.00000734	          0.00035093	          0.00003081	          0.00000222	          0.00000000	          0.00000076	          0.49015102	        649.48961934	        -42.15612936	          0.22419732	          0.00000000	          0.07735520	          0.00000000	         -0.00000094	          0.00000000	          0.00000000	          4.15355169	          0.00000000	
          3.15500000	          0.00008024	          0.00052603	          0.00002062	          0.00000117	          0.00000000	          0.00000040	          1.71920110	        649.17896156	        -42.12652957	          0.22521797	          0.00000000	          0.07771563	          0.00000000	          0.00000031	          0.00000000	          0.00000000	          3.95111921	          0.00000000	
          3.16000000	          0.00013005	          0.00059672	          0.00001246	          0.00000041	          0.00000000	          0.00000013	          2.93139614	        649.27165815	        -42.16406256	          0.22625364	          0.00000000	          0.07807333	          0.00000000	          0.00000109	          0.00000000	          0.00000000	          3.75651837	          0.00000000	
          3.16500000	          0.00015171	          0.00059486	          0.00000624	         -0.00000011	          0.00000000	         -0.00000005	          4.12618060	        649.78136927	        -42.27228851	          0.22730533	          0.00000000	          0.07842807	          0.00000000	          0.00000151	          0.00000000	          0.00000000	          3.57008027	          0.00000000	
          3.17000000	          0.00015360	          0.00054662	          0.00000176	         -0.00000044	          0.00000000	         -0.00000016	          5.30315377	        650.71645434	        -42.45330910	          0.22837121	          0.00000000	          0.07877825	          0.00000000	          0.00000165	          0.00000000	          0.00000000	          3.39223166	          0.00000000	
          3.17500000	          0.00014267	          0.00047245	         -0.00000126	         -0.00000061	          0.00000000	         -0.00000022	          6.46207591	        652.08024151	        -42.70784802	          0.22944970	          0.00000000	          0.07912162	          0.00000000	          0.00000162	          0.00000000	          0.00000000	          3.22329437	          0.00000000	
          3.18000000	          0.00012437	          0.00038753	         -0.00000309	         -0.00000068	          0.00000000	         -0.00000024	          7.60292661	        653.87346229	        -43.03363244	          0.23054153	          0.00000000	          0.07945646	          0.00000000	          0.00000146	          0.00000000	          0.00000000	          3.06313562	          0.00000000	
          3.18500000	          0.00010280	          0.00030242	         -0.00000402	         -0.00000066	          0.00000000	         -0.00000023	          8.72629488	        656.09216161	        -43.42363985	          0.23164804	          0.00000000	          0.07978075	          0.00000000	          0.00000125	          0.00000000	          0.00000000	          2.91129955	          0.00000000	
          3.19000000	          0.00008084	          0.00022392	         -0.00000430	         -0.00000060	          0.00000000	         -0.00000021	          9.83250186	        658.72943871	        -43.86482831	          0.23277052	          0.00000000	          0.08009226	          0.00000000	          0.00000102	          0.00000000	          0.00000000	          2.76651158	          0.00000000	
          3.19500000	          0.00006036	          0.00015587	         -0.00000414	         -0.00000052	          0.00000000	         -0.00000018	         10.92240394	        661.77616505	        -44.33821254	          0.23390876	          0.00000000	          0.08038790	          0.00000000	          0.00000078	          0.00000000	          0.00000000	          2.62672387	          0.00000000	
          3.20000000	          0.00004246	          0.00009991	         -0.00000371	         -0.00000042	          0.00000000	         -0.00000015	         11.99851931	        665.22271186	        -44.82128403	          0.23506105	          0.00000000	          0.08066474	          0.00000000	          0.00000057	          0.00000000	          0.00000000	          2.48958835	          0.00000000	
